<?xml version="1.0" encoding="UTF-8" standalone="no"?>
<!DOCTYPE svg PUBLIC "-//W3C//DTD SVG 1.1//EN"
 "http://www.w3.org/Graphics/SVG/1.1/DTD/svg11.dtd">
<!-- Generated by graphviz version 2.43.0 (0)
 -->
<!-- Title: snakemake_dag Pages: 1 -->
<svg width="514pt" height="548pt"
 viewBox="0.00 0.00 514.00 548.00" xmlns="http://www.w3.org/2000/svg" xmlns:xlink="http://www.w3.org/1999/xlink">
<g id="graph0" class="graph" transform="scale(1 1) rotate(0) translate(4 544)">
<title>snakemake_dag</title>
<polygon fill="white" stroke="transparent" points="-4,4 -4,-544 510,-544 510,4 -4,4"/>
<!-- 0 -->
<g id="node1" class="node">
<title>0</title>
<path fill="none" stroke="#d85656" stroke-width="2" d="M407,-36C407,-36 377,-36 377,-36 371,-36 365,-30 365,-24 365,-24 365,-12 365,-12 365,-6 371,0 377,0 377,0 407,0 407,0 413,0 419,-6 419,-12 419,-12 419,-24 419,-24 419,-30 413,-36 407,-36"/>
<text text-anchor="middle" x="392" y="-15.5" font-family="sans" font-size="10.00">all</text>
</g>
<!-- 1 -->
<g id="node2" class="node">
<title>1</title>
<path fill="none" stroke="#56d882" stroke-width="2" stroke-dasharray="5,2" d="M245,-468C245,-468 153,-468 153,-468 147,-468 141,-462 141,-456 141,-456 141,-444 141,-444 141,-438 147,-432 153,-432 153,-432 245,-432 245,-432 251,-432 257,-438 257,-444 257,-444 257,-456 257,-456 257,-462 251,-468 245,-468"/>
<text text-anchor="middle" x="199" y="-447.5" font-family="sans" font-size="10.00">download_fasta_file</text>
</g>
<!-- 1&#45;&gt;0 -->
<g id="edge1" class="edge">
<title>1&#45;&gt;0</title>
<path fill="none" stroke="grey" stroke-width="2" d="M140.91,-434.3C82.17,-415.54 0,-376.82 0,-307 0,-307 0,-307 0,-161 0,-116.47 9.84,-97.98 46,-72 94.91,-36.87 275.45,-24.37 354.51,-20.51"/>
<polygon fill="grey" stroke="grey" stroke-width="2" points="355.14,-23.99 364.96,-20.03 354.81,-17 355.14,-23.99"/>
</g>
<!-- 4 -->
<g id="node5" class="node">
<title>4</title>
<path fill="none" stroke="#d88556" stroke-width="2" d="M345.5,-396C345.5,-396 286.5,-396 286.5,-396 280.5,-396 274.5,-390 274.5,-384 274.5,-384 274.5,-372 274.5,-372 274.5,-366 280.5,-360 286.5,-360 286.5,-360 345.5,-360 345.5,-360 351.5,-360 357.5,-366 357.5,-372 357.5,-372 357.5,-384 357.5,-384 357.5,-390 351.5,-396 345.5,-396"/>
<text text-anchor="middle" x="316" y="-375.5" font-family="sans" font-size="10.00">bam_process</text>
</g>
<!-- 1&#45;&gt;4 -->
<g id="edge11" class="edge">
<title>1&#45;&gt;4</title>
<path fill="none" stroke="grey" stroke-width="2" d="M227.62,-431.88C242.92,-422.72 261.94,-411.34 278.42,-401.48"/>
<polygon fill="grey" stroke="grey" stroke-width="2" points="280.48,-404.33 287.27,-396.19 276.89,-398.32 280.48,-404.33"/>
</g>
<!-- 6 -->
<g id="node7" class="node">
<title>6</title>
<path fill="none" stroke="#56d8d8" stroke-width="2" d="M244.5,-396C244.5,-396 153.5,-396 153.5,-396 147.5,-396 141.5,-390 141.5,-384 141.5,-384 141.5,-372 141.5,-372 141.5,-366 147.5,-360 153.5,-360 153.5,-360 244.5,-360 244.5,-360 250.5,-360 256.5,-366 256.5,-372 256.5,-372 256.5,-384 256.5,-384 256.5,-390 250.5,-396 244.5,-396"/>
<text text-anchor="middle" x="199" y="-375.5" font-family="sans" font-size="10.00">generate_fasta_cpg</text>
</g>
<!-- 1&#45;&gt;6 -->
<g id="edge14" class="edge">
<title>1&#45;&gt;6</title>
<path fill="none" stroke="grey" stroke-width="2" d="M199,-431.7C199,-423.98 199,-414.71 199,-406.11"/>
<polygon fill="grey" stroke="grey" stroke-width="2" points="202.5,-406.1 199,-396.1 195.5,-406.1 202.5,-406.1"/>
</g>
<!-- 2 -->
<g id="node3" class="node">
<title>2</title>
<path fill="none" stroke="#59d856" stroke-width="2" stroke-dasharray="5,2" d="M466,-540C466,-540 350,-540 350,-540 344,-540 338,-534 338,-528 338,-528 338,-516 338,-516 338,-510 344,-504 350,-504 350,-504 466,-504 466,-504 472,-504 478,-510 478,-516 478,-516 478,-528 478,-528 478,-534 472,-540 466,-540"/>
<text text-anchor="middle" x="408" y="-525" font-family="sans" font-size="10.00">download_bam_or_cram</text>
<text text-anchor="middle" x="408" y="-514" font-family="sans" font-size="10.00">sample: input</text>
</g>
<!-- 2&#45;&gt;0 -->
<g id="edge2" class="edge">
<title>2&#45;&gt;0</title>
<path fill="none" stroke="grey" stroke-width="2" d="M440.67,-503.93C454.93,-494.98 470.71,-482.78 481,-468 504.48,-434.28 506,-420.09 506,-379 506,-379 506,-379 506,-161 506,-110 460.73,-66.88 427.24,-41.97"/>
<polygon fill="grey" stroke="grey" stroke-width="2" points="429.17,-39.05 419.02,-36.04 425.08,-44.73 429.17,-39.05"/>
</g>
<!-- 2&#45;&gt;4 -->
<g id="edge10" class="edge">
<title>2&#45;&gt;4</title>
<path fill="none" stroke="grey" stroke-width="2" d="M374.52,-503.99C360.27,-495.12 344.73,-482.97 335,-468 323.05,-449.62 318.47,-425.02 316.78,-406.34"/>
<polygon fill="grey" stroke="grey" stroke-width="2" points="320.26,-405.85 316.09,-396.11 313.28,-406.33 320.26,-405.85"/>
</g>
<!-- 5 -->
<g id="node6" class="node">
<title>5</title>
<path fill="none" stroke="#56d8a9" stroke-width="2" d="M460,-468C460,-468 356,-468 356,-468 350,-468 344,-462 344,-456 344,-456 344,-444 344,-444 344,-438 350,-432 356,-432 356,-432 460,-432 460,-432 466,-432 472,-438 472,-444 472,-444 472,-456 472,-456 472,-462 466,-468 460,-468"/>
<text text-anchor="middle" x="408" y="-447.5" font-family="sans" font-size="10.00">extract_chromosomes</text>
</g>
<!-- 2&#45;&gt;5 -->
<g id="edge13" class="edge">
<title>2&#45;&gt;5</title>
<path fill="none" stroke="grey" stroke-width="2" d="M408,-503.7C408,-495.98 408,-486.71 408,-478.11"/>
<polygon fill="grey" stroke="grey" stroke-width="2" points="411.5,-478.1 408,-468.1 404.5,-478.1 411.5,-478.1"/>
</g>
<!-- 3 -->
<g id="node4" class="node">
<title>3</title>
<path fill="none" stroke="#d8ac56" stroke-width="2" d="M340.5,-324C340.5,-324 285.5,-324 285.5,-324 279.5,-324 273.5,-318 273.5,-312 273.5,-312 273.5,-300 273.5,-300 273.5,-294 279.5,-288 285.5,-288 285.5,-288 340.5,-288 340.5,-288 346.5,-288 352.5,-294 352.5,-300 352.5,-300 352.5,-312 352.5,-312 352.5,-318 346.5,-324 340.5,-324"/>
<text text-anchor="middle" x="313" y="-303.5" font-family="sans" font-size="10.00">bed_process</text>
</g>
<!-- 3&#45;&gt;0 -->
<g id="edge3" class="edge">
<title>3&#45;&gt;0</title>
<path fill="none" stroke="grey" stroke-width="2" d="M339.17,-287.83C368.64,-266.64 414.56,-227.52 431,-180 446.7,-134.64 447.25,-117.52 432,-72 428.65,-62 422.58,-52.38 416.17,-44.14"/>
<polygon fill="grey" stroke="grey" stroke-width="2" points="418.82,-41.85 409.73,-36.4 413.44,-46.33 418.82,-41.85"/>
</g>
<!-- 7 -->
<g id="node8" class="node">
<title>7</title>
<path fill="none" stroke="#56a9d8" stroke-width="2" d="M188,-180C188,-180 124,-180 124,-180 118,-180 112,-174 112,-168 112,-168 112,-156 112,-156 112,-150 118,-144 124,-144 124,-144 188,-144 188,-144 194,-144 200,-150 200,-156 200,-156 200,-168 200,-168 200,-174 194,-180 188,-180"/>
<text text-anchor="middle" x="156" y="-159.5" font-family="sans" font-size="10.00">get_prediction</text>
</g>
<!-- 3&#45;&gt;7 -->
<g id="edge15" class="edge">
<title>3&#45;&gt;7</title>
<path fill="none" stroke="grey" stroke-width="2" d="M292.02,-287.88C279.64,-277.64 263.76,-264.28 250,-252 226.09,-230.65 199.64,-205.47 180.91,-187.35"/>
<polygon fill="grey" stroke="grey" stroke-width="2" points="183,-184.5 173.38,-180.04 178.12,-189.52 183,-184.5"/>
</g>
<!-- 8 -->
<g id="node9" class="node">
<title>8</title>
<path fill="none" stroke="#d6d856" stroke-width="2" d="M355,-252C355,-252 271,-252 271,-252 265,-252 259,-246 259,-240 259,-240 259,-228 259,-228 259,-222 265,-216 271,-216 271,-216 355,-216 355,-216 361,-216 367,-222 367,-228 367,-228 367,-240 367,-240 367,-246 361,-252 355,-252"/>
<text text-anchor="middle" x="313" y="-231.5" font-family="sans" font-size="10.00">combine_final_file</text>
</g>
<!-- 3&#45;&gt;8 -->
<g id="edge16" class="edge">
<title>3&#45;&gt;8</title>
<path fill="none" stroke="grey" stroke-width="2" d="M313,-287.7C313,-279.98 313,-270.71 313,-262.11"/>
<polygon fill="grey" stroke="grey" stroke-width="2" points="316.5,-262.1 313,-252.1 309.5,-262.1 316.5,-262.1"/>
</g>
<!-- 4&#45;&gt;3 -->
<g id="edge8" class="edge">
<title>4&#45;&gt;3</title>
<path fill="none" stroke="grey" stroke-width="2" d="M315.26,-359.7C314.93,-351.98 314.53,-342.71 314.16,-334.11"/>
<polygon fill="grey" stroke="grey" stroke-width="2" points="317.66,-333.95 313.73,-324.1 310.66,-334.25 317.66,-333.95"/>
</g>
<!-- 5&#45;&gt;4 -->
<g id="edge12" class="edge">
<title>5&#45;&gt;4</title>
<path fill="none" stroke="grey" stroke-width="2" d="M385.26,-431.7C373.56,-422.8 359.14,-411.82 346.49,-402.2"/>
<polygon fill="grey" stroke="grey" stroke-width="2" points="348.56,-399.37 338.48,-396.1 344.32,-404.94 348.56,-399.37"/>
</g>
<!-- 6&#45;&gt;3 -->
<g id="edge9" class="edge">
<title>6&#45;&gt;3</title>
<path fill="none" stroke="grey" stroke-width="2" d="M226.89,-359.88C241.79,-350.72 260.33,-339.34 276.38,-329.48"/>
<polygon fill="grey" stroke="grey" stroke-width="2" points="278.31,-332.41 285.01,-324.19 274.65,-326.44 278.31,-332.41"/>
</g>
<!-- 7&#45;&gt;0 -->
<g id="edge4" class="edge">
<title>7&#45;&gt;0</title>
<path fill="none" stroke="grey" stroke-width="2" d="M111.79,-148.91C91.34,-140.86 68.97,-127.99 57,-108 48.78,-94.27 46.61,-84.17 57,-72 94.97,-27.55 275.62,-20.17 354.74,-19.09"/>
<polygon fill="grey" stroke="grey" stroke-width="2" points="354.8,-22.59 364.76,-18.98 354.72,-15.59 354.8,-22.59"/>
</g>
<!-- 10 -->
<g id="node11" class="node">
<title>10</title>
<path fill="none" stroke="#80d856" stroke-width="2" d="M351.5,-108C351.5,-108 78.5,-108 78.5,-108 72.5,-108 66.5,-102 66.5,-96 66.5,-96 66.5,-84 66.5,-84 66.5,-78 72.5,-72 78.5,-72 78.5,-72 351.5,-72 351.5,-72 357.5,-72 363.5,-78 363.5,-84 363.5,-84 363.5,-96 363.5,-96 363.5,-102 357.5,-108 351.5,-108"/>
<text text-anchor="middle" x="215" y="-87.5" font-family="sans" font-size="10.00">combine_methylation_outputs_with_combined_final_file</text>
</g>
<!-- 7&#45;&gt;10 -->
<g id="edge18" class="edge">
<title>7&#45;&gt;10</title>
<path fill="none" stroke="grey" stroke-width="2" d="M170.58,-143.7C177.66,-135.3 186.28,-125.07 194.05,-115.86"/>
<polygon fill="grey" stroke="grey" stroke-width="2" points="196.81,-118.01 200.58,-108.1 191.46,-113.49 196.81,-118.01"/>
</g>
<!-- 8&#45;&gt;0 -->
<g id="edge5" class="edge">
<title>8&#45;&gt;0</title>
<path fill="none" stroke="grey" stroke-width="2" d="M367.06,-216.7C384.51,-208.59 401.93,-196.81 412,-180 437.03,-138.21 419.12,-79.42 404.86,-45.66"/>
<polygon fill="grey" stroke="grey" stroke-width="2" points="408.03,-44.17 400.79,-36.43 401.62,-46.99 408.03,-44.17"/>
</g>
<!-- 9 -->
<g id="node10" class="node">
<title>9</title>
<path fill="none" stroke="#5682d8" stroke-width="2" d="M390.5,-180C390.5,-180 229.5,-180 229.5,-180 223.5,-180 217.5,-174 217.5,-168 217.5,-168 217.5,-156 217.5,-156 217.5,-150 223.5,-144 229.5,-144 229.5,-144 390.5,-144 390.5,-144 396.5,-144 402.5,-150 402.5,-156 402.5,-156 402.5,-168 402.5,-168 402.5,-174 396.5,-180 390.5,-180"/>
<text text-anchor="middle" x="310" y="-159.5" font-family="sans" font-size="10.00">get_prediction_combine_final_file</text>
</g>
<!-- 8&#45;&gt;9 -->
<g id="edge17" class="edge">
<title>8&#45;&gt;9</title>
<path fill="none" stroke="grey" stroke-width="2" d="M312.26,-215.7C311.93,-207.98 311.53,-198.71 311.16,-190.11"/>
<polygon fill="grey" stroke="grey" stroke-width="2" points="314.66,-189.95 310.73,-180.1 307.66,-190.25 314.66,-189.95"/>
</g>
<!-- 9&#45;&gt;0 -->
<g id="edge6" class="edge">
<title>9&#45;&gt;0</title>
<path fill="none" stroke="grey" stroke-width="2" d="M337.94,-143.77C350.49,-134.64 364.39,-122.34 373,-108 384.22,-89.32 388.87,-64.93 390.76,-46.41"/>
<polygon fill="grey" stroke="grey" stroke-width="2" points="394.27,-46.52 391.59,-36.27 387.29,-45.95 394.27,-46.52"/>
</g>
<!-- 9&#45;&gt;10 -->
<g id="edge19" class="edge">
<title>9&#45;&gt;10</title>
<path fill="none" stroke="grey" stroke-width="2" d="M286.52,-143.7C274.44,-134.8 259.55,-123.82 246.48,-114.2"/>
<polygon fill="grey" stroke="grey" stroke-width="2" points="248.34,-111.22 238.21,-108.1 244.19,-116.85 248.34,-111.22"/>
</g>
<!-- 10&#45;&gt;0 -->
<g id="edge7" class="edge">
<title>10&#45;&gt;0</title>
<path fill="none" stroke="grey" stroke-width="2" d="M258.3,-71.88C288.05,-60.11 327.12,-44.66 355.34,-33.5"/>
<polygon fill="grey" stroke="grey" stroke-width="2" points="356.82,-36.68 364.83,-29.74 354.25,-30.17 356.82,-36.68"/>
</g>
</g>
</svg>
